<svg xmlns="http://www.w3.org/2000/svg" xmlns:xlink="http://www.w3.org/1999/xlink" version="1.1" id="Layer_1" x="0px" y="0px" viewBox="0 0 500 150" style="enable-background:new 0 0 500 150;" xml:space="preserve">
<style type="text/css">
	.st0{fill:#F8FF13;}
</style>
<g>
	<path class="st0" d="M94.1,70l5.3-18.6h24.7c13,0,20.9-5.9,24.5-18.4l2-6.9c4.6-15.9-2.9-25.8-19.3-25.8H23.9L3.9,70H94.1z    M131.2,19L127,34.2h-22.6l4.3-15.1H131.2z"/>
	<path class="st0" d="M159.8,70l6.6-11.7H197V70h20.1V0.2h-39.5L136.5,70H159.8z M188.7,19.2h8.3v22.2h-21L188.7,19.2z"/>
	<path class="st0" d="M299.1,32.3l1.8-6.3c4.6-16.1-2.9-25.8-19.3-25.8h-38.2l-20,69.8h20.9l5.5-19.2h13l5.9,19.2h21.5l-6.3-20.5   C291.5,47.2,296.5,41.5,299.1,32.3 M258.9,19h22.5l-4.2,15.1h-22.6L258.9,19z"/>
	<polygon class="st0" points="318.7,70 338.7,0.2 317.7,0.2 297.8,70  "/>
	<polygon class="st0" points="190.6,79.9 167,107.8 157.3,79.9 66.8,79.9 46.9,149.8 137.1,149.8 148.1,111.2 155.4,132.8    168.9,132.8 188.4,109.8 176.9,149.8 197.8,149.8 217.7,79.9  "/>
	<path class="st0" d="M245.7,79.9l-41.2,69.8h23.3l6.6-11.7H265v11.7h20.1V80L245.7,79.9L245.7,79.9z M244.1,121.2l12.6-22.2h8.3   v22.2H244.1z"/>
	<polygon class="st0" points="355.8,99.9 361.5,79.9 298,79.9 292.3,99.9 315.3,99.9 301,149.8 321.9,149.8 336.2,99.9  "/>
	<path class="st0" d="M383.7,99.9h31.7l5.8-19.9h-33.8c-13,0-20.9,5.9-24.5,18.4l-7.4,25.5c-4.7,16.3,2.9,25.8,19.3,25.8h26.3   l5.7-19.9h-31.7L383.7,99.9z"/>
	<polygon class="st0" points="475.2,79.9 468,104.9 444.1,104.9 451.2,79.9 430.3,79.9 410.4,149.8 431.3,149.8 438.4,124.8    462.3,124.8 455.2,149.8 476.2,149.8 496.1,79.9  "/>
</g>
</svg>